<?xml version="1.0" encoding="utf-8"?>
<!-- Generator: Adobe Illustrator 27.4.1, SVG Export Plug-In . SVG Version: 6.00 Build 0)  -->
<svg version="1.1" id="圖層_1" xmlns="http://www.w3.org/2000/svg" xmlns:xlink="http://www.w3.org/1999/xlink" x="0px" y="0px"
	 viewBox="0 0 1417.3 1417.3" style="enable-background:new 0 0 1417.3 1417.3;" xml:space="preserve">
<style type="text/css">
	.st0{fill:#292A2D;}
	.st1{clip-path:url(#SVGID_00000147217361159547677050000000095933616362318503_);}
	.st2{clip-path:url(#SVGID_00000048503142593527081600000009215604714535475109_);fill:#B3DD00;}
	.st3{clip-path:url(#SVGID_00000018921448533168761980000017744012359670440584_);fill:#B3DD00;}
</style>
<circle class="st0" cx="708.7" cy="708.7" r="708.7"/>
<g>
	<g>
		<g>
			<defs>
				<rect id="SVGID_1_" x="209.2" y="207.2" width="979" height="979"/>
			</defs>
			<clipPath id="SVGID_00000000945164868529543270000014072718328028629425_">
				<use xlink:href="#SVGID_1_"  style="overflow:visible;"/>
			</clipPath>
			<g style="clip-path:url(#SVGID_00000000945164868529543270000014072718328028629425_);">
				<g>
					<defs>
						<rect id="SVGID_00000076600212792053191820000018428273081084508323_" x="209.2" y="207.2" width="979" height="979"/>
					</defs>
					<clipPath id="SVGID_00000056418547424575933500000015821906756731788980_">
						<use xlink:href="#SVGID_00000076600212792053191820000018428273081084508323_"  style="overflow:visible;"/>
					</clipPath>
					<path style="clip-path:url(#SVGID_00000056418547424575933500000015821906756731788980_);fill:#B3DD00;" d="M527.8,568
						c9-19.1,19.1-38.2,28.1-57.3c11.1-23.1,23.1-47.2,34.2-70.4c8-17.1,18.1-33.2,29.1-47.2c-3,3-5,7-8,10.1
						c13.1-17.1,29.1-33.2,46.2-46.2c-3,3-7,5-10.1,8c18.1-14.1,37.2-25.1,58.3-34.2c-4,2-8,3-12.1,5c21.1-9,43.2-15.1,65.3-18.1
						c-5,1-9,1-14.1,2c22.1-3,44.2-3,66.3,0c-5-1-9-1-14.1-2c21.1,3,42.2,9,62.3,17.1c-4-2-8-3-12.1-5c19.1,8,38.2,19.1,55.3,32.2
						c-3-3-7-5-10.1-8c16.1,13.1,31.2,28.1,44.2,44.2c-3-3-5-7-8-10.1c13.1,17.1,24.1,36.2,33.2,56.3c-2-4-3-8-5-12.1
						c9,21.1,15.1,43.2,18.1,65.3c-1-5-1-9-2-14.1c3,23.1,3,46.2,0,69.4c1-5,1-9,2-14.1c-3,23.1-9,45.2-18.1,66.3c2-4,3-8,5-12.1
						c-9,21.1-20.1,42.2-30.2,63.3c-15.1,30.2-30.2,61.3-45.2,91.5c-3,7-7,14.1-10.1,21.1c-4,6-6,12.1-6,19.1c-2,7-1,14.1,1,21.1
						c2,7,5,13.1,9,18.1c4,6,8,10.1,14.1,13.1c12.1,6,26.1,9,40.2,5c12.1-4,25.1-12.1,31.2-24.1c9-18.1,18.1-37.2,27.1-55.3
						l43.2-88.4c15.1-30.2,29.1-61.3,36.2-94.5c6-27.1,8-56.3,6-84.4c-2-28.1-7-55.3-16.1-82.4c-9-26.1-21.1-51.3-37.2-74.4
						c-16.1-23.1-34.2-44.2-56.3-61.3c-13.1-10.1-26.1-20.1-40.2-28.1c-14.1-8-29.1-15.1-44.2-21.1c-26.1-10.1-54.3-16.1-82.4-18.1
						c-28.1-3-55.3,0-83.4,5c-27.1,5-53.3,15.1-78.4,27.1c-25.1,12.1-47.2,28.1-68.3,46.2c-21.1,19.1-40.2,41.2-55.3,65.3
						c-14.1,22.1-25.1,47.2-36.2,70.4c-13.1,27.1-26.1,54.3-39.2,81.4c-1,2-2,3-3,5c-4,6-6,12.1-6,19.1c-2,7-1,14.1,1,21.1
						c2,7,5,13.1,9,18.1c4,6,8,10.1,14.1,13.1c12.1,6,26.1,9,40.2,5C509.7,588.1,521.8,580.1,527.8,568"/>
				</g>
				<g>
					<defs>
						<rect id="SVGID_00000039127920278166187070000015512046486002694806_" x="209.2" y="207.2" width="979" height="979"/>
					</defs>
					<clipPath id="SVGID_00000081607795440769173060000016418801730766977688_">
						<use xlink:href="#SVGID_00000039127920278166187070000015512046486002694806_"  style="overflow:visible;"/>
					</clipPath>
					<path style="clip-path:url(#SVGID_00000081607795440769173060000016418801730766977688_);fill:#B3DD00;" d="M1063.5,689.6
						H334.8c-25.1,0-45.2,20.1-45.2,45.2v382.9c0,25.1,20.1,45.2,45.2,45.2h728.7c25.1,0,45.2-20.1,45.2-45.2V734.9
						C1108.7,709.7,1088.6,689.6,1063.5,689.6 M729.8,964v107.5c0,10.1-8,17.1-17.1,17.1h-27.1c-10.1,0-17.1-8-17.1-17.1V964
						c0-4-2-8-6-11.1c-18.1-12.1-30.2-32.2-31.2-55.3c-1-37.2,29.1-68.3,66.3-69.4c38.2-1,68.3,30.2,68.3,67.3
						c0,24.1-12.1,44.2-31.2,56.3C731.8,956,729.8,960,729.8,964"/>
				</g>
			</g>
		</g>
	</g>
</g>
</svg>
